<svg width="17" height="25" viewBox="0 0 17 25" fill="none" xmlns="http://www.w3.org/2000/svg">
<path fill-rule="evenodd" clip-rule="evenodd" d="M4.74919 1.90681C7.29105 0.429878 10.4154 0.455693 12.9334 1.97443C15.4267 3.5241 16.942 6.2898 16.9279 9.26493C16.8699 12.2205 15.245 14.9988 13.2139 17.1465C12.0416 18.3917 10.7302 19.4928 9.30648 20.4273C9.15985 20.5121 8.99923 20.5688 8.83256 20.5947C8.67214 20.5879 8.51592 20.5405 8.37798 20.4568C6.20437 19.0527 4.29746 17.2605 2.74897 15.1663C1.45324 13.4182 0.717096 11.3062 0.640504 9.11714C0.638822 6.13631 2.20733 3.38374 4.74919 1.90681ZM6.21804 10.3508C6.64561 11.4049 7.65485 12.0925 8.77453 12.0925C9.50806 12.0977 10.2132 11.8039 10.7328 11.2765C11.2524 10.7491 11.5433 10.0318 11.5407 9.28463C11.5446 8.1441 10.8731 7.11365 9.83981 6.67442C8.80649 6.23519 7.61514 6.47383 6.82202 7.27889C6.0289 8.08396 5.79046 9.29667 6.21804 10.3508Z" fill="#0D62FF"/>
<ellipse opacity="0.4" cx="8.78428" cy="22.9215" rx="5.81699" ry="1.1634" fill="#0D62FF"/>
</svg>
