<svg width="244" height="239" viewBox="0 0 244 239" fill="none" xmlns="http://www.w3.org/2000/svg">
<mask id="path-1-inside-1_1_193" fill="white">
<path d="M5.96554 126.456C4.68918 106.213 8.87255 85.998 18.0786 67.9241C27.2846 49.8501 41.1755 34.5801 58.2999 23.7094L119 119.329L5.96554 126.456Z"/>
</mask>
<path d="M5.96554 126.456C4.68918 106.213 8.87255 85.998 18.0786 67.9241C27.2846 49.8501 41.1755 34.5801 58.2999 23.7094L119 119.329L5.96554 126.456Z" fill="white" stroke="#333333" stroke-opacity="0.1" stroke-width="1.84161" mask="url(#path-1-inside-1_1_193)"/>
<g filter="url(#filter0_d_1_193)">
<mask id="path-2-inside-2_1_193" fill="white">
<path d="M58.3038 23.7067C75.4287 12.8367 95.1584 6.76501 115.432 6.12598C135.705 5.48696 155.778 10.3041 173.554 20.074C191.329 29.8439 206.155 44.2082 216.481 61.666C226.808 79.1239 232.257 99.0346 232.259 119.318L119 119.329L58.3038 23.7067Z"/>
</mask>
<path d="M58.3038 23.7067C75.4287 12.8367 95.1584 6.76501 115.432 6.12598C135.705 5.48696 155.778 10.3041 173.554 20.074C191.329 29.8439 206.155 44.2082 216.481 61.666C226.808 79.1239 232.257 99.0346 232.259 119.318L119 119.329L58.3038 23.7067Z" fill="#B4CEFF"/>
<path d="M58.3038 23.7067C75.4287 12.8367 95.1584 6.76501 115.432 6.12598C135.705 5.48696 155.778 10.3041 173.554 20.074C191.329 29.8439 206.155 44.2082 216.481 61.666C226.808 79.1239 232.257 99.0346 232.259 119.318L119 119.329L58.3038 23.7067Z" stroke="#333333" stroke-opacity="0.1" stroke-width="1.84161" mask="url(#path-2-inside-2_1_193)"/>
</g>
<mask id="path-3-inside-3_1_193" fill="white">
<path d="M232.259 119.329C232.259 143.247 224.687 166.551 210.628 185.901C196.57 205.251 176.746 219.654 153.999 227.045L119 119.329L232.259 119.329Z"/>
</mask>
<path d="M232.259 119.329C232.259 143.247 224.687 166.551 210.628 185.901C196.57 205.251 176.746 219.654 153.999 227.045L119 119.329L232.259 119.329Z" fill="white" stroke="#333333" stroke-opacity="0.1" stroke-width="1.84161" mask="url(#path-3-inside-3_1_193)"/>
<mask id="path-4-inside-4_1_193" fill="white">
<path d="M105.154 231.738C78.996 228.516 54.7805 216.273 36.6791 197.116C18.5777 177.96 7.72386 153.09 5.98725 126.792L119 119.329L105.154 231.738Z"/>
</mask>
<path d="M105.154 231.738C78.996 228.516 54.7805 216.273 36.6791 197.116C18.5777 177.96 7.72386 153.09 5.98725 126.792L119 119.329L105.154 231.738Z" fill="white" stroke="#333333" stroke-opacity="0.1" stroke-width="1.84161" mask="url(#path-4-inside-4_1_193)"/>
<mask id="path-5-inside-5_1_193" fill="white">
<path d="M153.958 227.058C138.101 232.204 121.302 233.785 104.763 231.689L119 119.329L153.958 227.058Z"/>
</mask>
<path d="M153.958 227.058C138.101 232.204 121.302 233.785 104.763 231.689L119 119.329L153.958 227.058Z" fill="white" stroke="#333333" stroke-opacity="0.1" stroke-width="1.84161" mask="url(#path-5-inside-5_1_193)"/>
<path d="M141.15 49.9707C141.58 49.6287 141.777 49.4704 141.739 49.4957C142.98 48.4697 143.955 47.6274 144.665 46.9687C145.387 46.31 145.995 45.6197 146.489 44.8977C146.983 44.1757 147.23 43.4727 147.23 42.7887C147.23 42.2694 147.109 41.864 146.869 41.5727C146.628 41.2814 146.267 41.1357 145.786 41.1357C145.304 41.1357 144.924 41.3194 144.646 41.6867C144.38 42.0414 144.247 42.548 144.247 43.2067H141.112C141.137 42.13 141.365 41.2307 141.796 40.5087C142.239 39.7867 142.815 39.2547 143.525 38.9127C144.247 38.5707 145.045 38.3997 145.919 38.3997C147.426 38.3997 148.56 38.786 149.32 39.5587C150.092 40.3314 150.479 41.3384 150.479 42.5797C150.479 43.935 150.016 45.1954 149.092 46.3607C148.167 47.5134 146.989 48.6407 145.558 49.7427H150.688V52.3837H141.15V49.9707ZM152.004 49.9707C152.435 49.6287 152.631 49.4704 152.593 49.4957C153.835 48.4697 154.81 47.6274 155.519 46.9687C156.241 46.31 156.849 45.6197 157.343 44.8977C157.837 44.1757 158.084 43.4727 158.084 42.7887C158.084 42.2694 157.964 41.864 157.723 41.5727C157.483 41.2814 157.122 41.1357 156.64 41.1357C156.159 41.1357 155.779 41.3194 155.5 41.6867C155.234 42.0414 155.101 42.548 155.101 43.2067H151.966C151.992 42.13 152.22 41.2307 152.65 40.5087C153.094 39.7867 153.67 39.2547 154.379 38.9127C155.101 38.5707 155.899 38.3997 156.773 38.3997C158.281 38.3997 159.414 38.786 160.174 39.5587C160.947 40.3314 161.333 41.3384 161.333 42.5797C161.333 43.935 160.871 45.1954 159.946 46.3607C159.022 47.5134 157.844 48.6407 156.412 49.7427H161.542V52.3837H152.004V49.9707ZM162.707 42.1997C162.707 41.1737 162.998 40.382 163.581 39.8247C164.176 39.2674 164.942 38.9887 165.88 38.9887C166.817 38.9887 167.577 39.2674 168.16 39.8247C168.742 40.382 169.034 41.1737 169.034 42.1997C169.034 43.2257 168.742 44.0174 168.16 44.5747C167.577 45.132 166.817 45.4107 165.88 45.4107C164.942 45.4107 164.176 45.132 163.581 44.5747C162.998 44.0174 162.707 43.2257 162.707 42.1997ZM175.608 39.1977L168.293 52.5737H165.158L172.473 39.1977H175.608ZM165.861 40.8887C165.253 40.8887 164.949 41.3257 164.949 42.1997C164.949 43.061 165.253 43.4917 165.861 43.4917C166.152 43.4917 166.38 43.384 166.545 43.1687C166.709 42.9534 166.792 42.6304 166.792 42.1997C166.792 41.3257 166.481 40.8887 165.861 40.8887ZM171.751 49.5717C171.751 48.5457 172.042 47.754 172.625 47.1967C173.207 46.6394 173.967 46.3607 174.905 46.3607C175.842 46.3607 176.602 46.6394 177.185 47.1967C177.767 47.754 178.059 48.5457 178.059 49.5717C178.059 50.5977 177.767 51.3894 177.185 51.9467C176.602 52.504 175.842 52.7827 174.905 52.7827C173.967 52.7827 173.207 52.504 172.625 51.9467C172.042 51.3894 171.751 50.5977 171.751 49.5717ZM174.886 48.2607C174.594 48.2607 174.366 48.3684 174.202 48.5837C174.05 48.799 173.974 49.1284 173.974 49.5717C173.974 50.433 174.278 50.8637 174.886 50.8637C175.177 50.8637 175.405 50.756 175.57 50.5407C175.734 50.3254 175.817 50.0024 175.817 49.5717C175.817 49.141 175.734 48.818 175.57 48.6027C175.405 48.3747 175.177 48.2607 174.886 48.2607Z" fill="#333333"/>
<path d="M178.271 170.37C179.625 169.282 180.687 168.391 181.455 167.698C182.223 166.994 182.868 166.263 183.391 165.506C183.924 164.738 184.191 163.986 184.191 163.25C184.191 162.557 184.02 162.013 183.679 161.618C183.348 161.213 182.809 161.01 182.063 161.01C181.337 161.01 180.772 161.239 180.367 161.698C179.972 162.146 179.759 162.749 179.727 163.506H178.319C178.361 162.311 178.724 161.389 179.407 160.738C180.089 160.087 180.969 159.762 182.047 159.762C183.145 159.762 184.015 160.066 184.655 160.674C185.305 161.282 185.631 162.119 185.631 163.186C185.631 164.071 185.364 164.935 184.831 165.778C184.308 166.61 183.711 167.346 183.039 167.986C182.367 168.615 181.508 169.351 180.463 170.194H185.967V171.41H178.271V170.37ZM187.65 165.634C187.65 163.799 187.949 162.37 188.546 161.346C189.143 160.311 190.189 159.794 191.682 159.794C193.165 159.794 194.205 160.311 194.802 161.346C195.399 162.37 195.698 163.799 195.698 165.634C195.698 167.501 195.399 168.951 194.802 169.986C194.205 171.021 193.165 171.538 191.682 171.538C190.189 171.538 189.143 171.021 188.546 169.986C187.949 168.951 187.65 167.501 187.65 165.634ZM194.258 165.634C194.258 164.706 194.194 163.922 194.066 163.282C193.949 162.631 193.698 162.109 193.314 161.714C192.941 161.319 192.397 161.122 191.682 161.122C190.957 161.122 190.402 161.319 190.018 161.714C189.645 162.109 189.394 162.631 189.266 163.282C189.149 163.922 189.09 164.706 189.09 165.634C189.09 166.594 189.149 167.399 189.266 168.05C189.394 168.701 189.645 169.223 190.018 169.618C190.402 170.013 190.957 170.21 191.682 170.21C192.397 170.21 192.941 170.013 193.314 169.618C193.698 169.223 193.949 168.701 194.066 168.05C194.194 167.399 194.258 166.594 194.258 165.634ZM197.377 162.578C197.377 161.853 197.595 161.277 198.033 160.85C198.47 160.413 199.03 160.194 199.713 160.194C200.395 160.194 200.955 160.413 201.393 160.85C201.83 161.277 202.049 161.853 202.049 162.578C202.049 163.314 201.83 163.901 201.393 164.338C200.955 164.765 200.395 164.978 199.713 164.978C199.03 164.978 198.47 164.765 198.033 164.338C197.595 163.901 197.377 163.314 197.377 162.578ZM206.721 160.37L200.241 171.538H198.801L205.281 160.37H206.721ZM199.713 161.09C199.35 161.09 199.062 161.218 198.849 161.474C198.646 161.719 198.545 162.087 198.545 162.578C198.545 163.069 198.646 163.442 198.849 163.698C199.062 163.954 199.35 164.082 199.713 164.082C200.075 164.082 200.363 163.954 200.577 163.698C200.79 163.431 200.897 163.058 200.897 162.578C200.897 162.087 200.79 161.719 200.577 161.474C200.363 161.218 200.075 161.09 199.713 161.09ZM203.505 169.33C203.505 168.594 203.723 168.013 204.161 167.586C204.598 167.149 205.158 166.93 205.841 166.93C206.523 166.93 207.078 167.149 207.505 167.586C207.942 168.013 208.161 168.594 208.161 169.33C208.161 170.055 207.942 170.637 207.505 171.074C207.078 171.511 206.523 171.73 205.841 171.73C205.158 171.73 204.598 171.517 204.161 171.09C203.723 170.653 203.505 170.066 203.505 169.33ZM205.825 167.842C205.462 167.842 205.174 167.97 204.961 168.226C204.747 168.471 204.641 168.839 204.641 169.33C204.641 169.81 204.747 170.178 204.961 170.434C205.174 170.679 205.462 170.802 205.825 170.802C206.187 170.802 206.475 170.679 206.689 170.434C206.902 170.178 207.009 169.81 207.009 169.33C207.009 168.839 206.902 168.471 206.689 168.226C206.475 167.97 206.187 167.842 205.825 167.842Z" fill="#333333"/>
<path d="M131.076 205.305L126.628 215.737H125.156L129.668 205.449H123.492V204.201H131.076V205.305ZM132.371 206.777C132.371 206.051 132.589 205.475 133.027 205.049C133.464 204.611 134.024 204.393 134.707 204.393C135.389 204.393 135.949 204.611 136.387 205.049C136.824 205.475 137.043 206.051 137.043 206.777C137.043 207.513 136.824 208.099 136.387 208.537C135.949 208.963 135.389 209.177 134.707 209.177C134.024 209.177 133.464 208.963 133.027 208.537C132.589 208.099 132.371 207.513 132.371 206.777ZM141.715 204.569L135.235 215.737H133.795L140.275 204.569H141.715ZM134.707 205.289C134.344 205.289 134.056 205.417 133.843 205.673C133.64 205.918 133.539 206.286 133.539 206.777C133.539 207.267 133.64 207.641 133.843 207.897C134.056 208.153 134.344 208.281 134.707 208.281C135.069 208.281 135.357 208.153 135.571 207.897C135.784 207.63 135.891 207.257 135.891 206.777C135.891 206.286 135.784 205.918 135.571 205.673C135.357 205.417 135.069 205.289 134.707 205.289ZM138.499 213.529C138.499 212.793 138.717 212.211 139.155 211.785C139.592 211.347 140.152 211.129 140.835 211.129C141.517 211.129 142.072 211.347 142.499 211.785C142.936 212.211 143.155 212.793 143.155 213.529C143.155 214.254 142.936 214.835 142.499 215.273C142.072 215.71 141.517 215.929 140.835 215.929C140.152 215.929 139.592 215.715 139.155 215.289C138.717 214.851 138.499 214.265 138.499 213.529ZM140.819 212.041C140.456 212.041 140.168 212.169 139.955 212.425C139.741 212.67 139.635 213.038 139.635 213.529C139.635 214.009 139.741 214.377 139.955 214.633C140.168 214.878 140.456 215.001 140.819 215.001C141.181 215.001 141.469 214.878 141.683 214.633C141.896 214.377 142.003 214.009 142.003 213.529C142.003 213.038 141.896 212.67 141.683 212.425C141.469 212.169 141.181 212.041 140.819 212.041Z" fill="#333333"/>
<path d="M45.5967 172.212C46.9514 171.124 48.0127 170.233 48.7807 169.54C49.5487 168.836 50.1941 168.105 50.7167 167.348C51.2501 166.58 51.5167 165.828 51.5167 165.092C51.5167 164.398 51.3461 163.854 51.0047 163.46C50.6741 163.054 50.1354 162.852 49.3887 162.852C48.6634 162.852 48.0981 163.081 47.6927 163.54C47.2981 163.988 47.0847 164.59 47.0527 165.348H45.6447C45.6874 164.153 46.0501 163.23 46.7327 162.58C47.4154 161.929 48.2954 161.604 49.3727 161.604C50.4714 161.604 51.3407 161.908 51.9807 162.516C52.6314 163.124 52.9567 163.961 52.9567 165.028C52.9567 165.913 52.6901 166.777 52.1567 167.62C51.6341 168.452 51.0367 169.188 50.3647 169.828C49.6927 170.457 48.8341 171.193 47.7887 172.036H53.2927V173.252H45.5967V172.212ZM54.7999 172.212C56.1545 171.124 57.2159 170.233 57.9839 169.54C58.7519 168.836 59.3972 168.105 59.9199 167.348C60.4532 166.58 60.7199 165.828 60.7199 165.092C60.7199 164.398 60.5492 163.854 60.2079 163.46C59.8772 163.054 59.3385 162.852 58.5919 162.852C57.8665 162.852 57.3012 163.081 56.8959 163.54C56.5012 163.988 56.2879 164.59 56.2559 165.348H54.8479C54.8905 164.153 55.2532 163.23 55.9359 162.58C56.6185 161.929 57.4985 161.604 58.5759 161.604C59.6745 161.604 60.5439 161.908 61.1839 162.516C61.8345 163.124 62.1599 163.961 62.1599 165.028C62.1599 165.913 61.8932 166.777 61.3599 167.62C60.8372 168.452 60.2399 169.188 59.5679 169.828C58.8959 170.457 58.0372 171.193 56.9919 172.036H62.4959V173.252H54.7999V172.212ZM63.859 164.42C63.859 163.694 64.0776 163.118 64.515 162.692C64.9523 162.254 65.5123 162.036 66.195 162.036C66.8776 162.036 67.4376 162.254 67.875 162.692C68.3123 163.118 68.531 163.694 68.531 164.42C68.531 165.156 68.3123 165.742 67.875 166.18C67.4376 166.606 66.8776 166.82 66.195 166.82C65.5123 166.82 64.9523 166.606 64.515 166.18C64.0776 165.742 63.859 165.156 63.859 164.42ZM73.203 162.212L66.723 173.38H65.283L71.763 162.212H73.203ZM66.195 162.932C65.8323 162.932 65.5443 163.06 65.331 163.316C65.1283 163.561 65.027 163.929 65.027 164.42C65.027 164.91 65.1283 165.284 65.331 165.54C65.5443 165.796 65.8323 165.924 66.195 165.924C66.5576 165.924 66.8456 165.796 67.059 165.54C67.2723 165.273 67.379 164.9 67.379 164.42C67.379 163.929 67.2723 163.561 67.059 163.316C66.8456 163.06 66.5576 162.932 66.195 162.932ZM69.987 171.172C69.987 170.436 70.2056 169.854 70.643 169.428C71.0803 168.99 71.6403 168.772 72.323 168.772C73.0056 168.772 73.5603 168.99 73.987 169.428C74.4243 169.854 74.643 170.436 74.643 171.172C74.643 171.897 74.4243 172.478 73.987 172.916C73.5603 173.353 73.0056 173.572 72.323 173.572C71.6403 173.572 71.0803 173.358 70.643 172.932C70.2056 172.494 69.987 171.908 69.987 171.172ZM72.307 169.684C71.9443 169.684 71.6563 169.812 71.443 170.068C71.2296 170.313 71.123 170.681 71.123 171.172C71.123 171.652 71.2296 172.02 71.443 172.276C71.6563 172.521 71.9443 172.644 72.307 172.644C72.6696 172.644 72.9576 172.521 73.171 172.276C73.3843 172.02 73.491 171.652 73.491 171.172C73.491 170.681 73.3843 170.313 73.171 170.068C72.9576 169.812 72.6696 169.684 72.307 169.684Z" fill="#333333"/>
<path d="M27.2855 81.851C27.3602 80.8697 27.7389 80.1017 28.4215 79.547C29.1042 78.9924 29.9895 78.715 31.0775 78.715C31.8029 78.715 32.4269 78.8484 32.9495 79.115C33.4829 79.371 33.8829 79.723 34.1495 80.171C34.4269 80.619 34.5655 81.1257 34.5655 81.691C34.5655 82.3524 34.3735 82.923 33.9895 83.403C33.6162 83.883 33.1255 84.1924 32.5175 84.331V84.411C33.2109 84.5817 33.7602 84.9177 34.1655 85.419C34.5709 85.9204 34.7735 86.5764 34.7735 87.387C34.7735 87.995 34.6349 88.5444 34.3575 89.035C34.0802 89.515 33.6642 89.8937 33.1095 90.171C32.5549 90.4484 31.8882 90.587 31.1095 90.587C29.9789 90.587 29.0509 90.2937 28.3255 89.707C27.6002 89.1097 27.1949 88.267 27.1095 87.179H28.5175C28.5922 87.819 28.8535 88.3417 29.3015 88.747C29.7495 89.1524 30.3469 89.355 31.0935 89.355C31.8402 89.355 32.4055 89.163 32.7895 88.779C33.1842 88.3844 33.3815 87.8777 33.3815 87.259C33.3815 86.459 33.1149 85.883 32.5815 85.531C32.0482 85.179 31.2429 85.003 30.1655 85.003H29.7975V83.787H30.1815C31.1629 83.7764 31.9042 83.6164 32.4055 83.307C32.9069 82.987 33.1575 82.4964 33.1575 81.835C33.1575 81.2697 32.9709 80.8164 32.5975 80.475C32.2349 80.1337 31.7122 79.963 31.0295 79.963C30.3682 79.963 29.8349 80.1337 29.4295 80.475C29.0242 80.8164 28.7842 81.275 28.7095 81.851H27.2855ZM36.3874 87.931V86.827L42.0034 79.051H43.7474V86.667H45.3474V87.931H43.7474V90.507H42.3074V87.931H36.3874ZM42.3714 80.571L38.0674 86.667H42.3714V80.571ZM46.4819 81.547C46.4819 80.8217 46.7006 80.2457 47.1379 79.819C47.5752 79.3817 48.1352 79.163 48.8179 79.163C49.5006 79.163 50.0606 79.3817 50.4979 79.819C50.9352 80.2457 51.1539 80.8217 51.1539 81.547C51.1539 82.283 50.9352 82.8697 50.4979 83.307C50.0606 83.7337 49.5006 83.947 48.8179 83.947C48.1352 83.947 47.5752 83.7337 47.1379 83.307C46.7006 82.8697 46.4819 82.283 46.4819 81.547ZM55.8259 79.339L49.3459 90.507H47.9059L54.3859 79.339H55.8259ZM48.8179 80.059C48.4552 80.059 48.1672 80.187 47.9539 80.443C47.7512 80.6884 47.6499 81.0564 47.6499 81.547C47.6499 82.0377 47.7512 82.411 47.9539 82.667C48.1672 82.923 48.4552 83.051 48.8179 83.051C49.1806 83.051 49.4686 82.923 49.6819 82.667C49.8952 82.4004 50.0019 82.027 50.0019 81.547C50.0019 81.0564 49.8952 80.6884 49.6819 80.443C49.4686 80.187 49.1806 80.059 48.8179 80.059ZM52.6099 88.299C52.6099 87.563 52.8286 86.9817 53.2659 86.555C53.7032 86.1177 54.2632 85.899 54.9459 85.899C55.6286 85.899 56.1832 86.1177 56.6099 86.555C57.0472 86.9817 57.2659 87.563 57.2659 88.299C57.2659 89.0244 57.0472 89.6057 56.6099 90.043C56.1832 90.4804 55.6286 90.699 54.9459 90.699C54.2632 90.699 53.7032 90.4857 53.2659 90.059C52.8286 89.6217 52.6099 89.035 52.6099 88.299ZM54.9299 86.811C54.5672 86.811 54.2792 86.939 54.0659 87.195C53.8526 87.4404 53.7459 87.8084 53.7459 88.299C53.7459 88.779 53.8526 89.147 54.0659 89.403C54.2792 89.6484 54.5672 89.771 54.9299 89.771C55.2926 89.771 55.5806 89.6484 55.7939 89.403C56.0072 89.147 56.1139 88.779 56.1139 88.299C56.1139 87.8084 56.0072 87.4404 55.7939 87.195C55.5806 86.939 55.2926 86.811 54.9299 86.811Z" fill="#333333"/>
<path d="M144.972 62.798L148.147 87.1987L125.428 77.7481L144.972 62.798Z" fill="#333333"/>
<g filter="url(#filter1_d_1_193)">
<circle cx="119.166" cy="119.495" r="53.2744" fill="white"/>
<circle cx="119.166" cy="119.495" r="52.3865" stroke="white" stroke-width="1.77581" stroke-linejoin="round" stroke-dasharray="3.55 3.55"/>
</g>
<circle cx="119.166" cy="119.495" r="37.2921" fill="white"/>
<path d="M102.318 108.809V109.623H98.9847V112.208H101.691V113.022H98.9847V116.476H97.9837V108.809H102.318ZM104.044 109.469C103.853 109.469 103.692 109.403 103.56 109.271C103.428 109.139 103.362 108.977 103.362 108.787C103.362 108.596 103.428 108.435 103.56 108.303C103.692 108.171 103.853 108.105 104.044 108.105C104.227 108.105 104.381 108.171 104.506 108.303C104.638 108.435 104.704 108.596 104.704 108.787C104.704 108.977 104.638 109.139 104.506 109.271C104.381 109.403 104.227 109.469 104.044 109.469ZM104.528 110.448V116.476H103.527V110.448H104.528ZM109.171 110.338C109.904 110.338 110.498 110.561 110.953 111.009C111.407 111.449 111.635 112.087 111.635 112.923V116.476H110.645V113.066C110.645 112.464 110.494 112.006 110.194 111.691C109.893 111.368 109.482 111.207 108.962 111.207C108.434 111.207 108.012 111.372 107.697 111.702C107.389 112.032 107.235 112.512 107.235 113.143V116.476H106.234V110.448H107.235V111.306C107.433 110.998 107.7 110.759 108.038 110.591C108.382 110.422 108.76 110.338 109.171 110.338ZM115.404 116.575C114.942 116.575 114.528 116.498 114.161 116.344C113.794 116.182 113.505 115.962 113.292 115.684C113.079 115.398 112.962 115.071 112.94 114.705H113.974C114.003 115.005 114.143 115.251 114.392 115.442C114.649 115.632 114.982 115.728 115.393 115.728C115.774 115.728 116.075 115.643 116.295 115.475C116.515 115.306 116.625 115.093 116.625 114.837C116.625 114.573 116.508 114.378 116.273 114.254C116.038 114.122 115.675 113.993 115.184 113.869C114.737 113.751 114.37 113.634 114.084 113.517C113.805 113.392 113.563 113.212 113.358 112.978C113.16 112.736 113.061 112.42 113.061 112.032C113.061 111.724 113.153 111.441 113.336 111.185C113.519 110.928 113.78 110.726 114.117 110.58C114.454 110.426 114.839 110.349 115.272 110.349C115.939 110.349 116.478 110.517 116.889 110.855C117.3 111.192 117.52 111.654 117.549 112.241H116.548C116.526 111.925 116.398 111.672 116.163 111.482C115.936 111.291 115.628 111.196 115.239 111.196C114.88 111.196 114.594 111.273 114.381 111.427C114.168 111.581 114.062 111.782 114.062 112.032C114.062 112.23 114.124 112.395 114.249 112.527C114.381 112.651 114.542 112.754 114.733 112.835C114.931 112.908 115.202 112.992 115.547 113.088C115.98 113.205 116.332 113.322 116.603 113.44C116.874 113.55 117.105 113.718 117.296 113.946C117.494 114.173 117.597 114.47 117.604 114.837C117.604 115.167 117.512 115.464 117.329 115.728C117.146 115.992 116.885 116.201 116.548 116.355C116.218 116.501 115.837 116.575 115.404 116.575ZM122.009 110.338C122.464 110.338 122.874 110.437 123.241 110.635C123.608 110.825 123.894 111.115 124.099 111.504C124.312 111.892 124.418 112.365 124.418 112.923V116.476H123.428V113.066C123.428 112.464 123.278 112.006 122.977 111.691C122.676 111.368 122.266 111.207 121.745 111.207C121.217 111.207 120.795 111.372 120.48 111.702C120.172 112.032 120.018 112.512 120.018 113.143V116.476H119.017V108.336H120.018V111.306C120.216 110.998 120.487 110.759 120.832 110.591C121.184 110.422 121.576 110.338 122.009 110.338ZM131.553 113.231C131.553 113.421 131.542 113.623 131.52 113.836H126.702C126.739 114.43 126.94 114.895 127.307 115.233C127.681 115.563 128.132 115.728 128.66 115.728C129.093 115.728 129.452 115.629 129.738 115.431C130.031 115.225 130.237 114.954 130.354 114.617H131.432C131.271 115.196 130.948 115.669 130.464 116.036C129.98 116.395 129.379 116.575 128.66 116.575C128.088 116.575 127.575 116.446 127.12 116.19C126.673 115.933 126.321 115.57 126.064 115.101C125.807 114.624 125.679 114.074 125.679 113.451C125.679 112.827 125.804 112.281 126.053 111.812C126.302 111.342 126.651 110.983 127.098 110.734C127.553 110.477 128.073 110.349 128.66 110.349C129.232 110.349 129.738 110.473 130.178 110.723C130.618 110.972 130.955 111.317 131.19 111.757C131.432 112.189 131.553 112.681 131.553 113.231ZM130.519 113.022C130.519 112.64 130.435 112.314 130.266 112.043C130.097 111.764 129.866 111.555 129.573 111.416C129.287 111.269 128.968 111.196 128.616 111.196C128.11 111.196 127.677 111.357 127.318 111.68C126.966 112.002 126.764 112.45 126.713 113.022H130.519ZM132.5 113.44C132.5 112.824 132.625 112.285 132.874 111.823C133.124 111.353 133.465 110.99 133.897 110.734C134.337 110.477 134.829 110.349 135.371 110.349C135.841 110.349 136.277 110.459 136.68 110.679C137.084 110.891 137.392 111.174 137.604 111.526V108.336H138.616V116.476H137.604V115.343C137.406 115.702 137.113 115.999 136.724 116.234C136.336 116.461 135.881 116.575 135.36 116.575C134.825 116.575 134.337 116.443 133.897 116.179C133.465 115.915 133.124 115.544 132.874 115.068C132.625 114.591 132.5 114.048 132.5 113.44ZM137.604 113.451C137.604 112.996 137.513 112.6 137.329 112.263C137.146 111.925 136.897 111.669 136.581 111.493C136.273 111.309 135.932 111.218 135.558 111.218C135.184 111.218 134.843 111.306 134.535 111.482C134.227 111.658 133.982 111.914 133.798 112.252C133.615 112.589 133.523 112.985 133.523 113.44C133.523 113.902 133.615 114.305 133.798 114.65C133.982 114.987 134.227 115.247 134.535 115.431C134.843 115.607 135.184 115.695 135.558 115.695C135.932 115.695 136.273 115.607 136.581 115.431C136.897 115.247 137.146 114.987 137.329 114.65C137.513 114.305 137.604 113.905 137.604 113.451ZM101.661 123.809V124.623H99.5707V131.476H98.5697V124.623H96.4687V123.809H101.661ZM103.894 126.427C104.07 126.082 104.319 125.814 104.642 125.624C104.972 125.433 105.372 125.338 105.841 125.338V126.372H105.577C104.455 126.372 103.894 126.98 103.894 128.198V131.476H102.893V125.448H103.894V126.427ZM106.622 128.44C106.622 127.824 106.747 127.285 106.996 126.823C107.246 126.353 107.587 125.99 108.019 125.734C108.459 125.477 108.947 125.349 109.482 125.349C110.01 125.349 110.469 125.462 110.857 125.69C111.246 125.917 111.536 126.203 111.726 126.548V125.448H112.738V131.476H111.726V130.354C111.528 130.706 111.231 130.999 110.835 131.234C110.447 131.461 109.992 131.575 109.471 131.575C108.936 131.575 108.452 131.443 108.019 131.179C107.587 130.915 107.246 130.544 106.996 130.068C106.747 129.591 106.622 129.048 106.622 128.44ZM111.726 128.451C111.726 127.996 111.635 127.6 111.451 127.263C111.268 126.925 111.019 126.669 110.703 126.493C110.395 126.309 110.054 126.218 109.68 126.218C109.306 126.218 108.965 126.306 108.657 126.482C108.349 126.658 108.104 126.914 107.92 127.252C107.737 127.589 107.645 127.985 107.645 128.44C107.645 128.902 107.737 129.305 107.92 129.65C108.104 129.987 108.349 130.247 108.657 130.431C108.965 130.607 109.306 130.695 109.68 130.695C110.054 130.695 110.395 130.607 110.703 130.431C111.019 130.247 111.268 129.987 111.451 129.65C111.635 129.305 111.726 128.905 111.726 128.451ZM114.947 124.469C114.756 124.469 114.595 124.403 114.463 124.271C114.331 124.139 114.265 123.977 114.265 123.787C114.265 123.596 114.331 123.435 114.463 123.303C114.595 123.171 114.756 123.105 114.947 123.105C115.13 123.105 115.284 123.171 115.409 123.303C115.541 123.435 115.607 123.596 115.607 123.787C115.607 123.977 115.541 124.139 115.409 124.271C115.284 124.403 115.13 124.469 114.947 124.469ZM115.431 125.448V131.476H114.43V125.448H115.431ZM120.074 125.338C120.807 125.338 121.401 125.561 121.856 126.009C122.311 126.449 122.538 127.087 122.538 127.923V131.476H121.548V128.066C121.548 127.464 121.398 127.006 121.097 126.691C120.796 126.368 120.386 126.207 119.865 126.207C119.337 126.207 118.915 126.372 118.6 126.702C118.292 127.032 118.138 127.512 118.138 128.143V131.476H117.137V125.448H118.138V126.306C118.336 125.998 118.604 125.759 118.941 125.591C119.286 125.422 119.663 125.338 120.074 125.338ZM124.69 124.469C124.499 124.469 124.338 124.403 124.206 124.271C124.074 124.139 124.008 123.977 124.008 123.787C124.008 123.596 124.074 123.435 124.206 123.303C124.338 123.171 124.499 123.105 124.69 123.105C124.873 123.105 125.027 123.171 125.152 123.303C125.284 123.435 125.35 123.596 125.35 123.787C125.35 123.977 125.284 124.139 125.152 124.271C125.027 124.403 124.873 124.469 124.69 124.469ZM125.174 125.448V131.476H124.173V125.448H125.174ZM129.817 125.338C130.551 125.338 131.145 125.561 131.599 126.009C132.054 126.449 132.281 127.087 132.281 127.923V131.476H131.291V128.066C131.291 127.464 131.141 127.006 130.84 126.691C130.54 126.368 130.129 126.207 129.608 126.207C129.08 126.207 128.659 126.372 128.343 126.702C128.035 127.032 127.881 127.512 127.881 128.143V131.476H126.88V125.448H127.881V126.306C128.079 125.998 128.347 125.759 128.684 125.591C129.029 125.422 129.407 125.338 129.817 125.338ZM136.402 125.349C136.923 125.349 137.378 125.462 137.766 125.69C138.162 125.917 138.456 126.203 138.646 126.548V125.448H139.658V131.608C139.658 132.158 139.541 132.645 139.306 133.071C139.072 133.503 138.734 133.841 138.294 134.083C137.862 134.325 137.356 134.446 136.776 134.446C135.984 134.446 135.324 134.259 134.796 133.885C134.268 133.511 133.957 133.001 133.861 132.356H134.851C134.961 132.722 135.189 133.016 135.533 133.236C135.878 133.463 136.292 133.577 136.776 133.577C137.326 133.577 137.774 133.404 138.118 133.06C138.47 132.715 138.646 132.231 138.646 131.608V130.343C138.448 130.695 138.155 130.988 137.766 131.223C137.378 131.457 136.923 131.575 136.402 131.575C135.867 131.575 135.379 131.443 134.939 131.179C134.507 130.915 134.166 130.544 133.916 130.068C133.667 129.591 133.542 129.048 133.542 128.44C133.542 127.824 133.667 127.285 133.916 126.823C134.166 126.353 134.507 125.99 134.939 125.734C135.379 125.477 135.867 125.349 136.402 125.349ZM138.646 128.451C138.646 127.996 138.555 127.6 138.371 127.263C138.188 126.925 137.939 126.669 137.623 126.493C137.315 126.309 136.974 126.218 136.6 126.218C136.226 126.218 135.885 126.306 135.577 126.482C135.269 126.658 135.024 126.914 134.84 127.252C134.657 127.589 134.565 127.985 134.565 128.44C134.565 128.902 134.657 129.305 134.84 129.65C135.024 129.987 135.269 130.247 135.577 130.431C135.885 130.607 136.226 130.695 136.6 130.695C136.974 130.695 137.315 130.607 137.623 130.431C137.939 130.247 138.188 129.987 138.371 129.65C138.555 129.305 138.646 128.905 138.646 128.451Z" fill="#333333"/>
<defs>
<filter id="filter0_d_1_193" x="47.0881" y="6.06975" width="196.387" height="135.69" filterUnits="userSpaceOnUse" color-interpolation-filters="sRGB">
<feFlood flood-opacity="0" result="BackgroundImageFix"/>
<feColorMatrix in="SourceAlpha" type="matrix" values="0 0 0 0 0 0 0 0 0 0 0 0 0 0 0 0 0 0 127 0" result="hardAlpha"/>
<feOffset dy="11.2157"/>
<feGaussianBlur stdDeviation="5.60783"/>
<feComposite in2="hardAlpha" operator="out"/>
<feColorMatrix type="matrix" values="0 0 0 0 0 0 0 0 0 0 0 0 0 0 0 0 0 0 0.25 0"/>
<feBlend mode="normal" in2="BackgroundImageFix" result="effect1_dropShadow_1_193"/>
<feBlend mode="normal" in="SourceGraphic" in2="effect1_dropShadow_1_193" result="shape"/>
</filter>
<filter id="filter1_d_1_193" x="54.6762" y="55.0051" width="128.98" height="128.98" filterUnits="userSpaceOnUse" color-interpolation-filters="sRGB">
<feFlood flood-opacity="0" result="BackgroundImageFix"/>
<feColorMatrix in="SourceAlpha" type="matrix" values="0 0 0 0 0 0 0 0 0 0 0 0 0 0 0 0 0 0 127 0" result="hardAlpha"/>
<feOffset/>
<feGaussianBlur stdDeviation="5.60783"/>
<feComposite in2="hardAlpha" operator="out"/>
<feColorMatrix type="matrix" values="0 0 0 0 0 0 0 0 0 0 0 0 0 0 0 0 0 0 0.25 0"/>
<feBlend mode="normal" in2="BackgroundImageFix" result="effect1_dropShadow_1_193"/>
<feBlend mode="normal" in="SourceGraphic" in2="effect1_dropShadow_1_193" result="shape"/>
</filter>
</defs>
</svg>
