<svg width="24" height="22" viewBox="0 0 24 22" fill="none" xmlns="http://www.w3.org/2000/svg">
<path opacity="0.4" d="M22.5457 12.3254C21.5905 12.3254 20.8134 11.5554 20.8134 10.609C20.8134 9.66139 21.5905 8.89134 22.5457 8.89134C22.7772 8.89134 22.9994 8.80027 23.1623 8.63888C23.3263 8.47634 23.4182 8.25616 23.4182 8.02676L23.4171 4.91199C23.4171 2.27906 21.2543 0.137222 18.5971 0.137222H4.97139C2.31419 0.137222 0.151432 2.27906 0.151432 4.91199L0.150269 8.12705C0.150269 8.35646 0.242177 8.57663 0.406216 8.73917C0.569092 8.90056 0.791301 8.99163 1.02282 8.99163C2.01054 8.99163 2.75512 9.68675 2.75512 10.609C2.75512 11.5554 1.97797 12.3254 1.02282 12.3254C0.54117 12.3254 0.150269 12.7128 0.150269 13.19V16.3025C0.150269 18.9354 2.31186 21.0784 4.97023 21.0784H18.5983C21.2566 21.0784 23.4182 18.9354 23.4182 16.3025V13.19C23.4182 12.7128 23.0273 12.3254 22.5457 12.3254Z" fill="#0D62FF"/>
<path d="M15.7753 10.1292L14.4036 11.4648L14.7282 13.353C14.7841 13.6799 14.6526 14.0021 14.3838 14.1953C14.1174 14.3907 13.7696 14.4151 13.4764 14.2593L11.7836 13.3693L10.0874 14.2604C9.96177 14.3267 9.82449 14.3616 9.68837 14.3616C9.51037 14.3616 9.33469 14.3058 9.18345 14.1964C8.91587 14.0021 8.78441 13.6799 8.84025 13.353L9.16367 11.4648L7.79203 10.1292C7.55469 9.89883 7.47209 9.56028 7.57447 9.245C7.67801 8.93089 7.9456 8.70751 8.27251 8.66098L10.1642 8.38525L11.0123 6.66691C11.1601 6.37141 11.4556 6.18759 11.7836 6.18759H11.786C12.1152 6.18875 12.4107 6.37257 12.5561 6.66808L13.4043 8.38525L15.2994 8.66214C15.6229 8.70751 15.8904 8.93089 15.9928 9.245C16.0964 9.56028 16.0138 9.89883 15.7753 10.1292Z" fill="#0D62FF"/>
</svg>
